{
  "accessors": [
    {
      "bufferView": 2,
      "componentType": 5126,
      "count": 1365,
      "max": [
        0.36698201298713684,
        0.1886100023984909,
        -0.36334899067878723
      ],
      "min": [
        -0.36698201298713684,
        -0.8180310130119324,
        -1.0
      ],
      "type": "VEC3"
    },
    {
      "bufferView": 2,
      "byteOffset": 16380,
      "componentType": 5126,
      "count": 1365,
      "max": [
        0.998625636100769,
        1.0,
        0.9990751147270203
      ],
      "min": [
        -0.9986253380775452,
        -0.9999987483024597,
        -0.9990777373313904
      ],
      "type": "VEC3"
    },
    {
      "bufferView": 3,
      "componentType": 5126,
      "count": 1365,
      "max": [
        0.999961256980896,
        0.998718798160553,
        0.9998822212219238,
        1.0
      ],
      "min": [
        -0.9999249577522278,
        -0.998604416847229,
        -0.9884152412414551,
        1.0
      ],
      "type": "VEC4"
    },
    {
      "bufferView": 1,
      "componentType": 5126,
      "count": 1365,
      "max": [
        1.0,
        0.9968500137329102
      ],
      "min": [
        0.0,
        0.0
      ],
      "type": "VEC2"
    },
    {
      "bufferView": 0,
      "componentType": 5125,
      "count": 5802,
      "type": "SCALAR"
    },
    {
      "bufferView": 2,
      "byteOffset": 32760,
      "componentType": 5126,
      "count": 20322,
      "max": [
        0.04172259941697121,
        0.869035005569458,
        0.9441140294075012
      ],
      "min": [
        -0.03607270121574402,
        -0.8495129942893982,
        -0.8419299721717834
      ],
      "type": "VEC3"
    },
    {
      "bufferView": 2,
      "byteOffset": 276624,
      "componentType": 5126,
      "count": 20322,
      "max": [
        1.0,
        1.0,
        0.999995768070221
      ],
      "min": [
        -1.0,
        -1.0,
        -0.9999399781227112
      ],
      "type": "VEC3"
    },
    {
      "bufferView": 3,
      "byteOffset": 21840,
      "componentType": 5126,
      "count": 20322,
      "max": [
        0.9999996423721313,
        0.999992311000824,
        1.0,
        1.0
      ],
      "min": [
        -0.9999996423721313,
        -0.999999463558197,
        -0.9999921917915344,
        -1.0
      ],
      "type": "VEC4"
    },
    {
      "bufferView": 1,
      "byteOffset": 10920,
      "componentType": 5126,
      "count": 20322,
      "max": [
        0.9899359941482544,
        1.0
      ],
      "min": [
        0.0,
        0.0
      ],
      "type": "VEC2"
    },
    {
      "bufferView": 0,
      "byteOffset": 23208,
      "componentType": 5125,
      "count": 110808,
      "type": "SCALAR"
    },
    {
      "bufferView": 2,
      "byteOffset": 520488,
      "componentType": 5126,
      "count": 736,
      "max": [
        0.11332599818706512,
        0.9933379888534546,
        1.0
      ],
      "min": [
        -0.10768499970436096,
        -0.9933390021324158,
        0.9320600032806396
      ],
      "type": "VEC3"
    },
    {
      "bufferView": 2,
      "byteOffset": 529320,
      "componentType": 5126,
      "count": 736,
      "max": [
        0.9999784827232361,
        0.9998636245727539,
        0.9999973773956299
      ],
      "min": [
        -0.9999784827232361,
        -0.9999145269393921,
        -0.9999947547912598
      ],
      "type": "VEC3"
    },
    {
      "bufferView": 3,
      "byteOffset": 346992,
      "componentType": 5126,
      "count": 736,
      "max": [
        0.3850844204425812,
        0.9999956488609314,
        0.9998708963394165,
        1.0
      ],
      "min": [
        -0.8893324136734009,
        -0.9999997615814209,
        -0.9999203085899353,
        -1.0
      ],
      "type": "VEC4"
    },
    {
      "bufferView": 1,
      "byteOffset": 173496,
      "componentType": 5126,
      "count": 736,
      "max": [
        0.9933310151100159,
        0.8559070229530334
      ],
      "min": [
        0.004098860081285238,
        0.012338699772953987
      ],
      "type": "VEC2"
    },
    {
      "bufferView": 0,
      "byteOffset": 466440,
      "componentType": 5125,
      "count": 2484,
      "type": "SCALAR"
    }
  ],
  "asset": {
    "extras": {
      "author": "Luca Giardina (https://sketchfab.com/Blulike1969)",
      "license": "CC-BY-4.0 (http://creativecommons.org/licenses/by/4.0/)",
      "source": "https://sketchfab.com/3d-models/victorian-street-lamp-d4006d2762ab434cb262d46d69433f1f",
      "title": "Victorian Street Lamp"
    },
    "generator": "Sketchfab-12.66.0",
    "version": "2.0"
  },
  "bufferViews": [
    {
      "buffer": 0,
      "byteLength": 476376,
      "name": "floatBufferViews",
      "target": 34963
    },
    {
      "buffer": 0,
      "byteLength": 179384,
      "byteOffset": 476376,
      "byteStride": 8,
      "name": "floatBufferViews",
      "target": 34962
    },
    {
      "buffer": 0,
      "byteLength": 538152,
      "byteOffset": 655760,
      "byteStride": 12,
      "name": "floatBufferViews",
      "target": 34962
    },
    {
      "buffer": 0,
      "byteLength": 358768,
      "byteOffset": 1193912,
      "byteStride": 16,
      "name": "floatBufferViews",
      "target": 34962
    }
  ],
  "buffers": [
    {
      "byteLength": 1552680,
      "uri": "scene.bin"
    }
  ],
  "images": [
    {
      "uri": "textures/WallPiece1_baseColor.jpeg"
    },
    {
      "uri": "textures/WallPiece1_metallicRoughness.png"
    },
    {
      "uri": "textures/WallPiece1_normal.png"
    },
    {
      "uri": "textures/MetalLines_baseColor.jpeg"
    },
    {
      "uri": "textures/MetalLines_metallicRoughness.png"
    },
    {
      "uri": "textures/MetalLines_normal.png"
    },
    {
      "uri": "textures/Lamp1_baseColor.jpeg"
    },
    {
      "uri": "textures/Lamp1_metallicRoughness.png"
    },
    {
      "uri": "textures/Lamp1_emissive.jpeg"
    },
    {
      "uri": "textures/Lamp1_normal.png"
    }
  ],
  "materials": [
    {
      "doubleSided": true,
      "name": "WallPiece1",
      "normalTexture": {
        "index": 2
      },
      "occlusionTexture": {
        "index": 1
      },
      "pbrMetallicRoughness": {
        "baseColorTexture": {
          "index": 0
        },
        "metallicRoughnessTexture": {
          "index": 1
        }
      }
    },
    {
      "doubleSided": true,
      "name": "MetalLines",
      "normalTexture": {
        "index": 5
      },
      "occlusionTexture": {
        "index": 4
      },
      "pbrMetallicRoughness": {
        "baseColorTexture": {
          "index": 3
        },
        "metallicRoughnessTexture": {
          "index": 4
        }
      }
    },
    {
      "doubleSided": true,
      "emissiveFactor": [
        1.0,
        1.0,
        1.0
      ],
      "emissiveTexture": {
        "index": 8
      },
      "name": "Lamp1",
      "normalTexture": {
        "index": 9
      },
      "occlusionTexture": {
        "index": 7
      },
      "pbrMetallicRoughness": {
        "baseColorTexture": {
          "index": 6
        },
        "metallicRoughnessTexture": {
          "index": 7
        }
      }
    }
  ],
  "meshes": [
    {
      "name": "defaultMaterial",
      "primitives": [
        {
          "attributes": {
            "NORMAL": 1,
            "POSITION": 0,
            "TANGENT": 2,
            "TEXCOORD_0": 3
          },
          "indices": 4,
          "material": 2,
          "mode": 4
        }
      ]
    },
    {
      "name": "defaultMaterial",
      "primitives": [
        {
          "attributes": {
            "NORMAL": 6,
            "POSITION": 5,
            "TANGENT": 7,
            "TEXCOORD_0": 8
          },
          "indices": 9,
          "material": 1,
          "mode": 4
        }
      ]
    },
    {
      "name": "defaultMaterial",
      "primitives": [
        {
          "attributes": {
            "NORMAL": 11,
            "POSITION": 10,
            "TANGENT": 12,
            "TEXCOORD_0": 13
          },
          "indices": 14,
          "material": 0,
          "mode": 4
        }
      ]
    }
  ],
  "nodes": [
    {
      "children": [
        1
      ],
      "matrix": [
        1.0,
        0.0,
        0.0,
        0.0,
        0.0,
        2.220446049250313e-16,
        -1.0,
        0.0,
        0.0,
        1.0,
        2.220446049250313e-16,
        0.0,
        0.0,
        -1.0000000133514576e-10,
        1.1500000063335847e-08,
        1.0
      ],
      "name": "Sketchfab_model"
    },
    {
      "children": [
        2,
        4,
        6
      ],
      "matrix": [
        1.0,
        0.0,
        0.0,
        0.0,
        0.0,
        -4.371139006309477e-08,
        0.999999999999999,
        0.0,
        0.0,
        -0.999999999999999,
        -4.371139006309477e-08,
        0.0,
        0.0,
        0.0,
        0.0,
        1.0
      ],
      "name": "Collada visual scene group"
    },
    {
      "children": [
        3
      ],
      "name": "Lamp"
    },
    {
      "mesh": 0,
      "name": "defaultMaterial"
    },
    {
      "children": [
        5
      ],
      "name": "MetalTubes"
    },
    {
      "mesh": 1,
      "name": "defaultMaterial"
    },
    {
      "children": [
        7
      ],
      "name": "WallPiece"
    },
    {
      "mesh": 2,
      "name": "defaultMaterial"
    }
  ],
  "samplers": [
    {
      "magFilter": 9729,
      "minFilter": 9987,
      "wrapS": 10497,
      "wrapT": 10497
    }
  ],
  "scene": 0,
  "scenes": [
    {
      "name": "Sketchfab_Scene",
      "nodes": [
        0
      ]
    }
  ],
  "textures": [
    {
      "sampler": 0,
      "source": 0
    },
    {
      "sampler": 0,
      "source": 1
    },
    {
      "sampler": 0,
      "source": 2
    },
    {
      "sampler": 0,
      "source": 3
    },
    {
      "sampler": 0,
      "source": 4
    },
    {
      "sampler": 0,
      "source": 5
    },
    {
      "sampler": 0,
      "source": 6
    },
    {
      "sampler": 0,
      "source": 7
    },
    {
      "sampler": 0,
      "source": 8
    },
    {
      "sampler": 0,
      "source": 9
    }
  ]
}
